# xmcd
#
# Track frame offsets:
#	150
#	24894
#	41580
#	57964
#	74130
#	90712
#	111305
#	128425
#	144690
#	158610
#	179192
#	194480
#	221477
#
# Disc length: 3191 seconds
#
# Revision: 0
# Processed by: cddbd v1.4PL0 Copyright (c) Steve Scherf et al.
# Submitted via: dBpowerAMP V4.0
#
DISCID=c10c750d
DTITLE=Red Dirt Rangers - Oklahoma Territory
DYEAR=1900
DGENRE=Country
TTITLE0=Deep Ellem Blues
TTITLE1=Follow Me Down
TTITLE2=Train Ride's Allright
TTITLE3=Dog on a Chain
TTITLE4=Idabel Blues
TTITLE5=Blue Diamond
TTITLE6=Dolores
TTITLE7=Be My Baby
TTITLE8=Black Gold
TTITLE9=Fresh Cut Hay
TTITLE10=New Orleans
TTITLE11=Last Dollar Road
TTITLE12=Used To Be 
EXTD=
EXTT0=
EXTT1=
EXTT2=
EXTT3=
EXTT4=
EXTT5=
EXTT6=
EXTT7=
EXTT8=
EXTT9=
EXTT10=
EXTT11=
EXTT12=
PLAYORDER=
